<svg xmlns="http://www.w3.org/2000/svg" version="1.1" xmlns:xlink="http://www.w3.org/1999/xlink" xmlns:svgjs="http://svgjs.dev/svgjs" width="2000" height="1500" viewBox="0 0 2000 1500"><rect width="2000" height="1500" fill="#ab0000"></rect><g transform="matrix(0.75,0,0,0.75,250,0.0009525261203862101)"><svg viewBox="0 0 280 280" data-background-color="#ab0000" preserveAspectRatio="xMidYMid meet" height="2000" width="2000" xmlns="http://www.w3.org/2000/svg" xmlns:xlink="http://www.w3.org/1999/xlink"><g id="tight-bounds" transform="matrix(1,0,0,1,0,0.00016928165979379628)"><svg viewBox="0 0 280 280" height="280" width="280"><g><svg viewBox="0 0 280 280" height="280" width="280"><g><svg viewBox="0 0 280 280" height="280" width="280"><g id="textblocktransform"><svg viewBox="0 0 280 280" height="280" width="280" id="textblock"><g><svg viewBox="0 0 280 280" height="280" width="280"><g transform="matrix(1,0,0,1,57.50420886156945,57.50420886156945)"><svg viewBox="0 0 164.9915822768611 164.9915822768611" height="164.9915822768611" width="164.9915822768611"><g><circle r="82" cx="82.49579113843055" cy="82.49579113843055" fill="#2ecc40" data-fill-palette-color="accent"></circle><svg xmlns="http://www.w3.org/2000/svg" xmlns:xlink="http://www.w3.org/1999/xlink" version="1.1" x="24.748737341529164" y="24.74873734152917" viewBox="6.333000000000002 20 87.167 60" enable-background="new 0 0 100 100" xml:space="preserve" height="115.49410759380275" width="115.49410759380275" class="icon-kg-0" data-fill-palette-color="quaternary" id="kg-0"><g fill="#e8fd00" data-fill-palette-color="quaternary"><g fill="#e8fd00" data-fill-palette-color="quaternary"><path d="M93.5 52.668c0-3.611-4.367-6.02-14.16-7.808l-0.898 4.918c6.103 1.115 8.62 2.278 9.6 2.898-1.373 0.861-5.218 2.342-13.552 3.51-0.784-0.714-1.854-1.106-2.989-0.964-2.061 0.258-3.521 2.139-3.263 4.198s2.139 3.521 4.198 3.263c1.07-0.135 1.971-0.711 2.561-1.519C93.485 58.618 93.5 54.331 93.5 52.668z" fill="#e8fd00" data-fill-palette-color="quaternary"></path><path d="M41.34 57.538c-18.103-0.708-27.177-3.332-29.559-4.854 0.975-0.621 3.506-1.796 9.688-2.919l-0.895-4.92c-9.849 1.79-14.241 4.202-14.241 7.822 0 3.308 3.608 5.565 11.699 7.317 6.022 1.306 14.221 2.2 23.195 2.552l-0.056 2.465 8.744-4.791-8.521-5.178L41.34 57.538z" fill="#e8fd00" data-fill-palette-color="quaternary"></path></g><g fill="#e8fd00" data-fill-palette-color="quaternary"><path d="M76.465 63.986c-1.017 0.909-2.294 1.502-3.657 1.674-0.28 0.035-0.563 0.053-0.845 0.053-0.46 0-0.909-0.051-1.346-0.14-2.977 3.935-7.039 7.001-11.758 8.723l3.125-2.273-1.123-2.771 3.597-4.719 1.121-2.996 0.066-0.209c-0.13-0.345-0.233-0.702-0.306-1.072l-1.107 0.532-1.124 0.226-2.771-1.724-0.826-1.873-1.048-1.049-1.348-2.996 1.123 0.898 2.099 2.322 0.749 1.048 1.497 0.75 0.449 1.948 1.799-1.199 0.387-0.48c0.058-1.392 0.537-2.73 1.41-3.853 0.373-0.48 0.806-0.896 1.279-1.253l-0.68-0.555-0.45-0.826-0.524 0.975-1.048 1.198-1.499-1.649-0.448-1.271 1.048 0.225 1.049 0.523 1.499-0.523 0.899 0.3 2.395-1.648 1.351 0.749 0.823-0.449 1.125 1.771c0.447 0.103 0.881 0.253 1.299 0.444L75 52.573l0.006-0.373-0.056-0.01 0.062-0.337 0.006-0.354 0.074-3.222 0.551-1.526c0.045 0.356 0.073 0.718 0.104 1.077l0.641-3.507 0.539-2.951 1.906 0.349C75.237 29.179 63.693 20 50 20c-13.683 0-25.219 9.164-28.824 21.688l1.812-0.33 0.537 2.951 0.694 3.816c0.342-4.763 1.972-9.168 4.548-12.871l0.333 0.252-0.201 0.808 0.741 0.203-0.136-1.078 0.606-0.067v-1.415h0.607c0 0 0.107 0.274 0.219 0.562 0.123 0.317 0.254 0.65 0.254 0.65l0.674 0.743c0 0-0.809 0.2-1.077 0.2-0.271 0-0.137 1.079-0.137 1.079l0.944 0.336 0.609-1.125 1.413-1.57 0.673-2.09 1.28-1.214-0.741-0.536 0.811-0.542 0.067-0.741-2.359 0.675-0.075-0.09c1.284-1.091 2.677-2.059 4.159-2.886l1.106 0.481-0.742 1.416h-1.483l-0.27 1.279h1.215l1.752-1.078 1.213-1.212 0.202-1.146-1.752-0.135 1.212-0.81 1.146 0.203-0.2 1.212 1.55-0.945 0.271 0.742 0.337 1.08-0.877 1.077-0.942 0.876-1.418-0.201 0.676 1.415-1.28-0.202-2.158 2.225 0.54 0.741 1.753-0.136 1.482-0.473 1.889-0.2 0.875-0.202c0 0 0-0.54-0.067-0.875-0.067-0.338 0.674 0.065 0.674 0.065l0.811-0.471 0.605-1.888 2.225-1.013-0.337-0.539 0.54-0.674-1.753-0.271 0.473-0.674-2.226-0.742h-1.146l0.403-1.011 0.473-0.473-0.038-0.038c1.875-0.432 3.827-0.668 5.836-0.668 3.13 0 6.128 0.557 8.905 1.575l-0.069 0.157-1.122-0.073v0.674l0.45 0.299v0.6l0.375 0.523-1.349-0.823-0.897 0.45 0.448 1.049 0.226 1.198 0.6 0.674 1.42 0.226-0.297 0.598-0.302 0.901 1.274 0.823-0.075 0.374-2.396-2.022-0.147 0.75 1.047 1.048 0.6 0.225-1.35 0.299-0.149 0.675-0.974-0.975-0.6-1.271-0.224-1.275-0.601 0.749 0.449 1.798 0.749 0.526-0.298 1.721-0.451-0.225 0.075 0.899-0.675-0.075-0.673-0.976h-0.823l-1.198-0.149-1.2 0.076-1.123 0.899-0.748 1.272-1.574 1.199-0.15 0.673v0.826l0.376 0.823 0.749-0.6 0.224 0.449 0.376 0.674 0.074 0.151 0.374 0.449L50 41.537l-0.075-1.648 0.823-1.05c0 0 0.042-0.178 0.088-0.382 0.064-0.273 0.137-0.591 0.137-0.591l0.3-0.826 0.525 0.075-0.149 0.675-0.302 1.497 1.425-0.149 0.525 0.149-1.125 0.302 0.15 0.748-1.275 0.823 0.076 0.825L50 42.285l-0.224 0.599-0.899-0.3h-0.6v-1.273l-0.676 0.227v0.673l-1.872 1.499-1.05 0.375-0.448 0.523-1.498-0.375-0.076 0.675 0.975 0.375-0.075 1.348-2.698-0.075-0.373 0.599-0.375 1.049-0.449 0.901 0.674 0.749 0.75 0.896L43.483 50l0.149-0.898 0.526-0.45 0.898-0.3-0.075-0.599 0.824-0.225 1.198-0.226 0.749 0.898 1.35 0.976 0.598 0.973v0.45l0.748-0.45-0.373-0.673 0.15-0.751-0.675-0.298-0.599-0.823 0.374-1.201L50 47.378l0.973 0.75 0.374 1.349 0.976 0.747 0.226 0.825 0.45-0.974-0.15-0.45 0.224-0.374 1.421-1.199 0.301-1.498 0.601-0.45 0.747 0.075 1.126-1.124 0.073 0.9 1.646 0.523v0.824H57.64l-2.022 1.049-1.647 0.899 0.448 0.973 1.499 0.3 0.824 0.375L57.64 50.3l0.074 2.547-2.546 0.524-2.696-0.75-1.049 0.824 0.449 0.449-0.825-0.149-2.619-0.974-0.75 0.075-0.6-0.975v-1.199h-1.349l-0.749-0.149-2.396 0.525-1.873-0.15-0.182 0.099 2.423 1.473 8.521 5.178 4.44 2.698-4.557 2.496-6.058 3.319 0.954 0.393 0.149 2.172 1.35 1.724 1.272 2.246-1.123 1.35 1.148 1.784c-8.444-0.305-15.851-4.662-20.345-11.181-1.83-0.195-3.581-0.414-5.242-0.657C28.492 73.51 38.486 80 50 80c11.521 0 21.52-6.498 26.546-16.026C76.519 63.978 76.492 63.982 76.465 63.986z" fill="#e8fd00" data-fill-palette-color="quaternary"></path></g></g></svg></g></svg></g><g><path d="M8.064 90.453l5.188 2.1-1.339 4.073 16.503 5.424-1.975 6.008-16.503-5.424-1.418 4.313-5.191-2.09z" fill="#ffffff" data-fill-palette-color="primary"></path><path d="M17.876 69.948l20.569 10.194-2.791 5.63-7.782-3.857-1.922 3.878 7.783 3.857-2.822 5.694-20.569-10.194 2.822-5.693 8.082 4.005 1.922-3.878-8.083-4.005z" fill="#ffffff" data-fill-palette-color="primary"></path><path d="M43.975 63.426l4.001 3.31-7.204 10.112-18.697-13.32 7.422-10.417 4.388 3.587-3.54 4.969 2.798 1.994 3.07-4.309 3.979 2.834-3.07 4.309 3.095 2.206z" fill="#ffffff" data-fill-palette-color="primary"></path><path d="M46.169 52.204c1.581 1.504 2.857 2.418 3.826 2.743 0.969 0.325 1.793 0.129 2.473-0.585 0.68-0.715 1.468-1.886 2.363-3.515v0l4.446 2.9c-0.827 1.899-1.92 3.563-3.28 4.993v0c-2.04 2.144-4.233 3.029-6.579 2.652-2.342-0.381-4.918-1.908-7.728-4.58-2.815-2.678-4.485-5.231-5.01-7.66-0.525-2.439 0.309-4.811 2.503-7.117v0c1.29-1.356 2.808-2.379 4.554-3.068v0l3.458 4.673c-1.783 0.953-2.937 1.706-3.463 2.259v0c-0.75 0.788-0.926 1.66-0.53 2.616 0.397 0.955 1.386 2.185 2.967 3.689z" fill="#ffffff" data-fill-palette-color="primary"></path><path d="M50.289 35.556c-0.011-2.333 1.261-4.487 3.816-6.463 2.554-1.976 4.94-2.669 7.157-2.079 2.217 0.591 4.581 2.508 7.091 5.753 2.514 3.249 3.808 6.092 3.883 8.529 0.076 2.428-1.153 4.621-3.686 6.581-2.538 1.964-4.959 2.607-7.261 1.928-2.297-0.683-4.7-2.647-7.211-5.891-2.514-3.249-3.777-6.035-3.789-8.358zM63.339 36.672c-1.385-1.79-2.465-2.894-3.24-3.311-0.771-0.411-1.592-0.28-2.464 0.394-0.866 0.67-1.18 1.417-0.943 2.242 0.236 0.834 1.04 2.139 2.412 3.913v0l0.54 0.697c1.464 1.892 2.567 3.025 3.309 3.399 0.746 0.379 1.552 0.234 2.418-0.436 0.871-0.674 1.213-1.391 1.026-2.152-0.182-0.765-0.959-2.034-2.332-3.809v0z" fill="#ffffff" data-fill-palette-color="primary"></path><path d="M87.887 21.808v0c3.751 7.051 2.84 12.059-2.731 15.023v0l-6.72 3.574-10.781-20.267 6.855-3.646c2.977-1.583 5.534-1.876 7.672-0.878 2.138 0.998 4.04 3.063 5.705 6.194zM82.559 32.185c1.151-0.612 1.68-1.418 1.585-2.416-0.101-0.995-0.663-2.456-1.689-4.382-1.025-1.927-1.929-3.195-2.712-3.804-0.786-0.615-1.767-0.61-2.942 0.015v0l-0.975 0.519 5.659 10.639z" fill="#ffffff" data-fill-palette-color="primary"></path><path d="M94.999 7.378l8.098 21.481-5.879 2.217-8.099-21.481z" fill="#ffffff" data-fill-palette-color="primary"></path><path d="M118.968 1.56l5.025 22.4-5.914 1.326-6.996-9.378-0.287 0.064 2.339 10.424-5.479 1.229-5.025-22.4 6.092-1.366 6.852 9.753 0.287-0.064-2.412-10.75z" fill="#ffffff" data-fill-palette-color="primary"></path><path d="M141.813 0.906l-0.716 6.07c-2.395-0.607-4.143-0.885-5.243-0.835-1.093 0.05-1.821 0.564-2.181 1.541-0.361 0.977-0.494 2.508-0.398 4.594 0.095 2.079 0.354 3.582 0.775 4.51 0.428 0.934 1.233 1.374 2.414 1.32v0c0.344-0.016 1.004-0.148 1.981-0.396v0l-0.129-2.804-1.66 0.076-0.2-4.353 7.047-0.324 0.581 12.666-4.354 0.2-0.652-1.157-0.141 0.006c-0.403 0.363-0.725 0.639-0.967 0.826v0c-0.665 0.545-1.625 0.846-2.88 0.903v0c-5.143 0.236-7.893-3.534-8.251-11.31v0c-0.179-3.895 0.36-6.899 1.616-9.012 1.262-2.121 3.493-3.255 6.693-3.402v0c2.565-0.118 4.787 0.176 6.665 0.882z" fill="#ffffff" data-fill-palette-color="primary"></path><path d="M167.436 2.602l-2.804 22.785-6.016-0.741-3.433-11.186-0.291-0.036-1.306 10.603-5.572-0.686 2.804-22.784 6.197 0.762 3.17 11.491 0.292 0.036 1.346-10.935z" fill="#ffffff" data-fill-palette-color="primary"></path><path d="M175.91 7.293c1.906-1.344 4.401-1.534 7.484-0.572 3.083 0.963 5.016 2.523 5.801 4.68 0.785 2.156 0.565 5.192-0.658 9.107-1.225 3.921-2.816 6.61-4.771 8.065-1.947 1.452-4.449 1.7-7.507 0.745-3.063-0.957-4.976-2.574-5.736-4.85-0.755-2.275-0.52-5.369 0.702-9.284 1.225-3.921 2.787-6.552 4.685-7.891zM182.465 18.632c0.675-2.161 0.962-3.678 0.86-4.552-0.104-0.868-0.682-1.466-1.733-1.795-1.045-0.326-1.838-0.156-2.379 0.51-0.549 0.671-1.159 2.077-1.827 4.218v0l-0.263 0.842c-0.713 2.283-1.011 3.836-0.893 4.658 0.116 0.829 0.697 1.407 1.741 1.733 1.051 0.328 1.835 0.198 2.352-0.39 0.523-0.587 1.119-1.951 1.789-4.092v0z" fill="#ffffff" data-fill-palette-color="primary"></path><path d="M217.618 23.04l-10.196 20.583-5.113-2.753 5.679-10.548-0.294-0.159-7.598 9.515-5.239-2.82 3.859-11.528-0.33-0.178-5.679 10.548-5.042-2.715 11.56-19.847 7.327 3.944-4.065 11.912 0.259 0.14 7.643-9.986z" fill="#ffffff" data-fill-palette-color="primary"></path><path d="M234.298 36.061l-11.4 20.364-4.754-3.936 1.769-3.233-3.365-2.786-2.846 2.341-4.528-3.749 17.888-14.993zM219.94 43.66l2.194 1.816 4.236-7.15-0.203-0.168z" fill="#ffffff" data-fill-palette-color="primary"></path><path d="M245.082 63.463v0c-6.007 5.263-11.09 5.521-15.249 0.775v0l-5.016-5.725 17.266-15.128 5.116 5.839c2.222 2.536 3.092 4.959 2.609 7.268-0.483 2.31-2.058 4.633-4.726 6.971zM233.761 60.647c0.859 0.981 1.764 1.311 2.715 0.991 0.946-0.325 2.239-1.207 3.88-2.645 1.641-1.438 2.669-2.608 3.083-3.51 0.419-0.906 0.19-1.86-0.687-2.861v0l-0.728-0.831-9.064 7.942z" fill="#ffffff" data-fill-palette-color="primary"></path><path d="M240.71 73.908v0c0.82-0.549 1.571-0.744 2.256-0.584 0.688 0.165 1.348 0.719 1.98 1.662 0.628 0.937 0.888 1.756 0.779 2.455-0.109 0.699-0.593 1.337-1.451 1.912v0c-1.577 1.057-2.97 0.685-4.177-1.117-1.207-1.802-1.003-3.244 0.613-4.328z" fill="#ffffff" data-fill-palette-color="primary"></path><path d="M267.862 79.997l-20.283 10.751-2.943-5.551 20.283-10.752z" fill="#ffffff" data-fill-palette-color="primary"></path><path d="M276.671 103.031l-21.582 7.826-2.065-5.698 8.415-8.129-0.1-0.277-10.043 3.642-1.914-5.279 21.582-7.825 2.128 5.869-8.806 8.034 0.1 0.276 10.357-3.755z" fill="#ffffff" data-fill-palette-color="primary"></path><path d="M34.857 186.021l-5.423 1.388-1.338-4.073-16.504 5.424-1.974-6.008 16.503-5.424-1.418-4.314 5.419-1.397z" fill="#ffffff" data-fill-palette-color="primary"></path><path d="M43.146 202.809l-20.569 10.193-2.79-5.63 7.782-3.857-1.921-3.878-7.783 3.857-2.822-5.694 20.569-10.193 2.822 5.694-8.082 4.005 1.922 3.878 8.082-4.006z" fill="#ffffff" data-fill-palette-color="primary"></path><path d="M37.988 226.12l-4.435 2.7-7.204-10.112 18.696-13.32 7.422 10.417-4.824 2.976-3.54-4.969-2.798 1.993 3.069 4.309-3.978 2.835-3.07-4.309-3.096 2.205z" fill="#ffffff" data-fill-palette-color="primary"></path><path d="M49.656 229.76c-1.581 1.504-2.558 2.732-2.932 3.684-0.373 0.951-0.219 1.784 0.461 2.499 0.68 0.715 1.81 1.56 3.392 2.537v0l-3.119 4.294c-1.855-0.921-3.463-2.097-4.822-3.526v0c-2.04-2.144-2.813-4.379-2.32-6.704 0.498-2.32 2.152-4.816 4.963-7.489 2.815-2.678 5.449-4.217 7.901-4.619 2.462-0.402 4.789 0.55 6.983 2.856v0c1.29 1.356 2.235 2.924 2.835 4.703v0l-4.841 3.219c-0.862-1.828-1.556-3.019-2.082-3.572v0c-0.75-0.788-1.612-1.008-2.586-0.66-0.974 0.348-2.252 1.275-3.833 2.778z" fill="#ffffff" data-fill-palette-color="primary"></path><path d="M64.609 231.218c2.255-0.596 4.66 0.094 7.214 2.071 2.554 1.976 3.824 4.112 3.808 6.407-0.016 2.295-1.278 5.064-3.788 8.307-2.514 3.249-4.941 5.216-7.281 5.9-2.331 0.683-4.763 0.044-7.296-1.916-2.538-1.964-3.768-4.146-3.689-6.545 0.085-2.395 1.382-5.214 3.892-8.458 2.514-3.249 4.894-5.171 7.14-5.766zM66.805 244.13c1.385-1.79 2.182-3.113 2.391-3.967 0.205-0.85-0.128-1.612-1-2.286-0.866-0.67-1.668-0.787-2.407-0.35-0.749 0.437-1.809 1.543-3.182 3.317v0l-0.54 0.697c-1.464 1.892-2.284 3.244-2.459 4.056-0.18 0.818 0.163 1.561 1.029 2.232 0.871 0.674 1.651 0.825 2.341 0.452 0.695-0.368 1.729-1.439 3.101-3.213v0z" fill="#ffffff" data-fill-palette-color="primary"></path><path d="M90.823 257.954v0c-3.751 7.051-8.412 9.095-13.984 6.131v0l-6.72-3.575 10.781-20.267 6.854 3.646c2.977 1.583 4.649 3.54 5.016 5.871 0.367 2.331-0.282 5.062-1.947 8.194zM79.24 259.335c1.151 0.612 2.114 0.6 2.889-0.036 0.769-0.64 1.666-1.923 2.69-3.85 1.025-1.927 1.571-3.385 1.639-4.375 0.07-0.996-0.482-1.806-1.658-2.431v0l-0.975-0.519-5.659 10.64z" fill="#ffffff" data-fill-palette-color="primary"></path><path d="M104.949 251.512l-8.099 21.48-5.88-2.217 8.099-21.48z" fill="#ffffff" data-fill-palette-color="primary"></path><path d="M125.142 256.201l-5.025 22.399-5.914-1.326-2.32-11.469-0.286-0.064-2.339 10.424-5.478-1.23 5.024-22.399 6.092 1.366 2.029 11.746 0.287 0.065 2.412-10.75z" fill="#ffffff" data-fill-palette-color="primary"></path><path d="M143.032 257.82l-1.269 5.979c-2.33-0.824-4.044-1.261-5.145-1.312-1.093-0.05-1.865 0.395-2.313 1.335-0.449 0.94-0.721 2.453-0.817 4.538-0.095 2.079 0.024 3.6 0.359 4.562 0.341 0.969 1.102 1.481 2.283 1.535v0c0.344 0.016 1.014-0.055 2.008-0.212v0l0.129-2.804-1.66-0.077 0.199-4.353 7.047 0.323-0.581 12.666-4.354-0.2-0.543-1.212-0.141-0.006c-0.434 0.325-0.78 0.57-1.038 0.733v0c-0.712 0.481-1.696 0.693-2.952 0.636v0c-5.143-0.236-7.537-4.242-7.179-12.017v0c0.179-3.895 0.99-6.837 2.434-8.827 1.451-1.996 3.776-2.921 6.976-2.775v0c2.565 0.118 4.751 0.614 6.557 1.488z" fill="#ffffff" data-fill-palette-color="primary"></path><path d="M163.99 254.686l2.805 22.784-6.015 0.741-6.043-10.019-0.292 0.036 1.305 10.602-5.573 0.686-2.805-22.784 6.197-0.763 5.863 10.379 0.291-0.036-1.346-10.935z" fill="#ffffff" data-fill-palette-color="primary"></path><path d="M168.932 255.653c0.802-2.19 2.745-3.767 5.827-4.73 3.083-0.963 5.56-0.782 7.433 0.545 1.873 1.326 3.42 3.947 4.644 7.861 1.225 3.921 1.448 7.037 0.669 9.348-0.774 2.302-2.69 3.93-5.747 4.885-3.063 0.957-5.556 0.717-7.478-0.721-1.915-1.44-3.485-4.118-4.707-8.033-1.225-3.921-1.439-6.973-0.641-9.155zM180.777 261.244c-0.675-2.161-1.303-3.571-1.885-4.232-0.58-0.654-1.395-0.817-2.447-0.489-1.045 0.326-1.6 0.918-1.665 1.774-0.07 0.864 0.23 2.367 0.899 4.508v0l0.263 0.841c0.713 2.283 1.353 3.729 1.918 4.338 0.568 0.616 1.374 0.76 2.419 0.434 1.051-0.328 1.622-0.882 1.711-1.66 0.096-0.78-0.191-2.241-0.86-4.382v0z" fill="#ffffff" data-fill-palette-color="primary"></path><path d="M204.248 237.408l11.569 19.843-5.113 2.753-5.679-10.549-0.295 0.159 3.761 11.581-5.239 2.82-7.499-9.568-0.33 0.178 5.679 10.548-5.042 2.715-10.205-20.578 7.327-3.945 7.706 9.952 0.259-0.139-4.128-11.879z" fill="#ffffff" data-fill-palette-color="primary"></path><path d="M216.312 227.496l17.88 15-4.754 3.936-2.847-2.341-3.364 2.786 1.769 3.233-4.528 3.749-11.393-20.371zM221.099 243.02l2.194-1.816-6.235-5.496-0.203 0.168z" fill="#ffffff" data-fill-palette-color="primary"></path><path d="M240.38 217.698v0c6.007 5.263 6.931 10.268 2.772 15.015v0l-5.016 5.725-17.266-15.128 5.116-5.84c2.222-2.536 4.509-3.716 6.863-3.541 2.353 0.175 4.864 1.432 7.531 3.769zM239.077 229.29c0.859-0.981 1.068-1.921 0.625-2.82-0.447-0.895-1.491-2.061-3.132-3.5-1.641-1.438-2.936-2.303-3.885-2.595-0.953-0.296-1.868 0.056-2.745 1.058v0l-0.728 0.831 9.063 7.941z" fill="#ffffff" data-fill-palette-color="primary"></path><path d="M251.246 218.432v0c-0.82-0.549-1.286-1.171-1.398-1.864-0.109-0.699 0.153-1.52 0.784-2.463 0.628-0.937 1.286-1.489 1.975-1.654 0.688-0.165 1.462 0.04 2.32 0.615v0c1.577 1.057 1.762 2.486 0.555 4.289-1.207 1.802-2.619 2.161-4.236 1.077z" fill="#ffffff" data-fill-palette-color="primary"></path><path d="M242.943 192.074l20.283 10.752-2.943 5.552-20.283-10.752z" fill="#ffffff" data-fill-palette-color="primary"></path><path d="M250.157 172.635l21.581 7.825-2.066 5.698-11.67 0.847-0.1 0.276 10.043 3.641-1.914 5.279-21.582-7.825 2.128-5.87 11.909-0.522 0.1-0.277-10.357-3.755z" fill="#ffffff" data-fill-palette-color="primary"></path><path d="M9.818 142.64c0-1.476 1.197-2.673 2.673-2.673 1.476 0 2.673 1.197 2.673 2.673 0 1.476-1.197 2.673-2.673 2.674-1.476 0-2.673-1.197-2.673-2.674z" fill="#ffffff" data-fill-palette-color="primary"></path><path d="M265.23 142.64c0-1.476 1.197-2.673 2.673-2.673 1.476 0 2.673 1.197 2.674 2.673 0 1.476-1.197 2.673-2.674 2.674-1.476 0-2.673-1.197-2.673-2.674z" fill="#ffffff" data-fill-palette-color="primary"></path></g></svg></g></svg></g></svg></g></svg></g><defs></defs></svg><rect width="280" height="280" fill="none" stroke="none" visibility="hidden"></rect></g></svg></g></svg>